<svg width="40" height="40" viewBox="0 0 40 40" fill="none" xmlns="http://www.w3.org/2000/svg">
<path d="M31.3333 2.66636C31.3342 2.51084 31.28 2.36003 31.1803 2.24067C31.0806 2.12132 30.9419 2.04114 30.7887 2.01435L20.122 0.0110021C20.0409 -0.00366738 19.9578 -0.00366738 19.8767 0.0110021L9.21 2.01502C9.05699 2.04169 8.9184 2.12179 8.81891 2.24106C8.71941 2.36033 8.66546 2.51104 8.66667 2.66636V4.66637H0V32.6666H12V34.1199L2.55667 36.0093C1.45933 36.192 0 36.6666 0 38.6666V39.3333C2.84281e-05 39.4302 0.0211539 39.5258 0.0619067 39.6137C0.102659 39.7015 0.162061 39.7794 0.23598 39.842C0.309898 39.9046 0.396559 39.9503 0.489934 39.9759C0.583308 40.0016 0.681155 40.0066 0.776667 39.9907L12.722 38H27.278L39.2233 39.9907C39.2596 39.9971 39.2965 40.0002 39.3333 40C39.5101 40 39.6797 39.9298 39.8047 39.8047C39.9298 39.6797 40 39.5101 40 39.3333V38.6666C40 36.6726 38.55 36.1946 37.454 36.0106L28 34.1199V32.6666H40V4.66637H31.3333V2.66636ZM20 1.34501L27.5453 2.75969L20 4.64571L12.4547 2.75969L20 1.34501ZM30 3.52036V14.2044L20.6667 17.7045V5.85372L30 3.52036ZM10 3.52036L19.3333 5.85372V17.7045L10 14.2044V3.52036ZM9.09933 15.2911L19.766 19.2912C19.8425 19.3123 19.9209 19.3264 20 19.3332C20.0791 19.3264 20.1575 19.3123 20.234 19.2912L30.9007 15.2911C31.0278 15.2435 31.1374 15.1581 31.2147 15.0465C31.292 14.9348 31.3334 14.8022 31.3333 14.6665V8.66641H36V28.6666H4V8.66641H8.66667V14.6665C8.66658 14.8022 8.70797 14.9348 8.78529 15.0465C8.86261 15.1581 8.97218 15.2435 9.09933 15.2911ZM37.2 37.32L37.2207 37.324C38.38 37.5173 38.6367 37.8773 38.662 38.546L27.4407 36.6793C27.4053 36.6719 27.3694 36.6677 27.3333 36.6666H12.6667C12.6298 36.6664 12.593 36.6696 12.5567 36.676L1.33333 38.546C1.35867 37.8793 1.616 37.5173 2.79533 37.32L12.7333 35.3333H27.2667L37.2 37.32ZM13.3333 33.9999V32.6666H26.6667V33.9999H13.3333ZM38.6667 5.99972V31.3333H1.33333V5.99972H8.66667V7.33306H2.66667V29.9999H37.3333V7.33306H31.3333V5.99972H38.6667Z" fill="#67AA82"/>
</svg>
