<svg width="40" height="40" viewBox="0 0 40 40" fill="none" xmlns="http://www.w3.org/2000/svg">
<path d="M37.5 0H2.5C1.83719 0.000865283 1.20174 0.305057 0.733061 0.84584C0.264383 1.38662 0.000749912 2.11983 0 2.88462V29.4231C0.000749912 30.1879 0.264383 30.9211 0.733061 31.4619C1.20174 32.0026 1.83719 32.3068 2.5 32.3077H15.3125C15.2052 34.4204 14.6566 36.4718 13.7134 38.2869L13.4283 38.835C13.3676 38.9517 13.3349 39.0849 13.3334 39.2211C13.3319 39.3572 13.3617 39.4913 13.4199 39.6098C13.478 39.7282 13.5623 39.8268 13.6642 39.8953C13.7662 39.9639 13.882 40 14 40H26C26.118 40 26.2338 39.9639 26.3358 39.8953C26.4377 39.8268 26.522 39.7282 26.5801 39.6098C26.6383 39.4913 26.6681 39.3572 26.6666 39.2211C26.6651 39.0849 26.6324 38.9517 26.5717 38.835L26.2866 38.2869C25.3434 36.4718 24.7948 34.4204 24.6875 32.3077H37.5C38.1628 32.3068 38.7983 32.0026 39.2669 31.4619C39.7356 30.9211 39.9993 30.1879 40 29.4231V2.88462C39.9993 2.11983 39.7356 1.38662 39.2669 0.84584C38.7983 0.305057 38.1628 0.000865283 37.5 0ZM24.8399 38.4615H15.1601C16.0426 36.5615 16.551 34.4604 16.6492 32.3077H18.1147C18.0079 32.6558 17.975 33.0284 18.0189 33.3942C18.0627 33.7599 18.182 34.1082 18.3668 34.4098C18.5515 34.7113 18.7962 34.9574 19.0804 35.1271C19.3646 35.2969 19.68 35.3855 20 35.3855C20.32 35.3855 20.6354 35.2969 20.9196 35.1271C21.2038 34.9574 21.4485 34.7113 21.6332 34.4098C21.818 34.1082 21.9373 33.7599 21.9811 33.3942C22.025 33.0284 21.9921 32.6558 21.8853 32.3077H23.3508C23.449 34.4604 23.9574 36.5615 24.8399 38.4615ZM19.3333 33.0769C19.3333 32.9248 19.3724 32.7761 19.4457 32.6496C19.5189 32.5231 19.6231 32.4245 19.7449 32.3662C19.8667 32.308 20.0007 32.2928 20.1301 32.3225C20.2594 32.3522 20.3782 32.4254 20.4714 32.533C20.5646 32.6406 20.6281 32.7776 20.6539 32.9269C20.6796 33.0761 20.6664 33.2307 20.6159 33.3713C20.5655 33.5119 20.48 33.632 20.3704 33.7165C20.2607 33.801 20.1319 33.8462 20 33.8462C19.8232 33.8459 19.6538 33.7648 19.5288 33.6206C19.4038 33.4764 19.3335 33.2809 19.3333 33.0769ZM38.6667 29.4231C38.6663 29.78 38.5433 30.1222 38.3246 30.3745C38.1059 30.6269 37.8093 30.7689 37.5 30.7692H2.5C2.19068 30.7689 1.89413 30.6269 1.67541 30.3745C1.45669 30.1222 1.33366 29.78 1.33333 29.4231V27.6923H38.6667V29.4231ZM38.6667 26.1538H1.33333V2.88462C1.33366 2.52771 1.45669 2.18553 1.67541 1.93316C1.89413 1.68079 2.19068 1.53884 2.5 1.53846H37.5C37.8093 1.53884 38.1059 1.68079 38.3246 1.93316C38.5433 2.18553 38.6663 2.52771 38.6667 2.88462V26.1538Z" fill="#BA68FB"/>
</svg>
